<svg width="34" height="34" viewBox="0 0 34 34" fill="none" xmlns="http://www.w3.org/2000/svg">
<path d="M17.2486 26.5075C11.8561 26.5604 7.48569 22.1699 7.53856 16.8097C7.46807 11.4671 11.8385 7.07662 17.1957 7.12952C20.0329 7.11188 22.2534 8.01114 24.1918 9.8449L21.7071 12.3311C20.5616 11.0792 18.9932 10.5326 17.1957 10.5326C13.6183 10.4797 11.2217 13.3009 11.2922 16.8273C11.1864 20.3185 13.636 23.1926 17.2133 23.1221C19.1166 23.1397 20.5968 22.5402 21.8304 21.2707L24.3152 23.7569C22.3767 25.5554 20.0153 26.578 17.2486 26.5428V26.5075Z" fill="#0B163E"/>
<path d="M30.3069 27.583C35.999 20.3361 35.0297 10.0741 27.9631 4.02616C20.3149 -2.60362 8.24349 -0.822746 2.76288 7.72896C-3.86318 17.9029 2.05798 31.4798 13.8298 33.6662C19.8567 34.9534 26.5357 32.4319 30.3245 27.583H30.3069ZM27.9278 24.7442C25.4783 28.2178 21.5132 30.4042 17.0019 30.4042C7.34474 30.4571 0.753916 20.1774 4.78947 11.4318C5.81158 9.24535 7.39761 7.25289 9.45944 5.94809C14.9577 2.0337 22.9759 3.3385 27.1172 8.32847C31.1351 13.001 31.4523 19.8601 27.9278 24.7442Z" fill="#2B95FF"/>
</svg>
